<svg height='300px' width='300px'  fill="#ffc831" xmlns="http://www.w3.org/2000/svg" xmlns:xlink="http://www.w3.org/1999/xlink" xml:space="preserve" version="1.1" style="shape-rendering:geometricPrecision;text-rendering:geometricPrecision;image-rendering:optimizeQuality;" viewBox="0 0 233 341" x="0px" y="0px" fill-rule="evenodd" clip-rule="evenodd"><defs><style type="text/css">
   
    .fil0 {fill:#ffc831;fill-rule:nonzero}
   
  </style></defs><g><path class="fil0" d="M116 310c33,-41 97,-141 97,-194 0,-53 -43,-96 -97,-96 -53,0 -96,43 -96,96 0,53 63,153 96,194zm0 31c-41,-48 -116,-159 -116,-225 0,-64 52,-116 116,-116 64,0 117,52 117,116 0,66 -75,177 -117,225z"></path><path class="fil0" d="M116 59c32,0 58,26 58,57 0,76 -115,76 -115,0 0,-31 26,-57 57,-57zm0 20c-20,0 -37,17 -37,37 0,21 17,38 37,38 21,0 38,-17 38,-38 0,-20 -17,-37 -38,-37z"></path></g></svg>