<svg height='300px' width='300px'  fill="#ffc831" xmlns="http://www.w3.org/2000/svg" viewBox="0 0 64 64" x="0px" y="0px"><title>phone, call, telephone</title><g><path d="M55.0723,42.84c-1.044-2.9541-4.7207-4.3506-8.085-5.4282a9.4762,9.4762,0,0,0-9.6211,2.33l-.5762.5757c-.86-.0733-3.4736-.7012-7.94-5.1675-4.5278-4.5283-5.1108-7.1519-5.1831-7.9248l.5913-.5918a9.4707,9.4707,0,0,0,2.33-9.6211c-1.0772-3.3643-2.4736-7.041-5.4277-8.085-1.7139-.6049-3.6675-.2011-5.8038,1.2027A14.2311,14.2311,0,0,0,8.7393,20.84c-.7315,7.1485,3.3505,15.9346,10.9184,23.502C26.6445,51.33,34.6689,55.3447,41.4854,55.3447a16.4316,16.4316,0,0,0,1.6738-.084A14.2337,14.2337,0,0,0,53.87,48.6436C55.2734,46.5078,55.6787,44.5552,55.0723,42.84Zm-3.71,4.1553a11.1787,11.1787,0,0,1-8.5088,5.2808c-6.2627.6416-14.1391-3.12-21.0747-10.0552S11.083,27.4063,11.7236,21.1455a11.1794,11.1794,0,0,1,5.28-8.5083c1.3106-.8618,2.3721-1.1582,3.1567-.8809,1.5933.563,2.7447,3.5938,3.57,6.1714a6.4822,6.4822,0,0,1-1.5938,6.585l-.977.977a1.4955,1.4955,0,0,0-.3755.6275c-.2017.668-.8628,4.3472,5.9443,11.1543,6.8086,6.8086,10.4854,6.146,11.1553,5.9443a1.5011,1.5011,0,0,0,.6269-.3755l.9766-.977A6.4776,6.4776,0,0,1,46.0732,40.27c2.5772.8252,5.6075,1.9766,6.1709,3.57C52.5205,44.6235,52.2246,45.6851,51.3623,46.9956Z"></path></g></svg>